<svg width="904" height="1080" viewBox="0 0 904 1080" fill="none" xmlns="http://www.w3.org/2000/svg">
<path fill-rule="evenodd" clip-rule="evenodd" d="M570.129 -6L535.418 28.7111L535.597 96.654L153.163 478.22V577.147L535.852 194.023L535.853 194.023V194.022L538.889 191.853V29.145L573.601 -6H570.129ZM313.269 -5.56613H310.665V38.2584L208.691 140.654V141.095L206.531 142.823L205.663 287.742L208.691 290.338V290.346L223.887 305.098L536.287 -5.13226H430.852L208.7 216.576V210.935L311.095 108.981H313.269V-5.56613ZM225.192 305.966L391.368 141.522V233.073L279.425 344.582V351.958H271.181L225.192 305.966ZM391.368 340.677L539.758 192.287V161.047L618.726 82.0801V58.6495H621.329V176.667H618.726V175.366L503.312 289.912H569.697L602.672 322.454L444.737 479.522L398.745 433.53H391.368V340.677ZM239.506 492.543L385.727 347.19L390.5 354.561V433.101L239.506 584.528V492.543ZM254.259 602.746L191.779 665.226L191.779 665.227L189.176 667.83V768.492H191.779L191.779 732.045L443.869 480.389L398.31 434.831H390.934L254.259 570.638V602.746ZM328.888 596.672L454.716 472.146H544.097H554.077L491.163 532.891H483.787L420.439 596.672H328.888ZM328.888 596.672L376.182 643.532L249.921 769.794V676.508L328.888 596.672ZM380.087 645.267L220.416 804.505L220.416 804.071H216.077V893.452L220.416 889.547L439.096 670.433L431.72 663.49H474.241L620.028 516.836L574.036 471.278H555.812L427.381 599.275H332.793L380.087 645.267ZM182.232 928.597L447.339 664.358H541.927L488.558 717.727H481.616L311.531 888.245H294.61L190.044 993.245V998.02V1062.67H187.44V933.805L182.232 928.597ZM295.912 889.114L260.333 925.127V1057.9L275.52 1073.08H322.813V942.048V889.114H295.912ZM324.549 877.832L391.368 810.145V920.353V1006.7L335.396 1062.23H324.549V877.832ZM450.811 757.645L392.236 815.352V866.551V1005.83L457.319 941.18V763.719L450.811 757.645ZM543.229 664.358H560.151L602.672 707.313L458.187 850.931V750.268L543.229 664.358ZM526.741 784.545L458.187 853.534V928.163L464.695 933.803L526.741 871.323V784.545ZM572.733 933.371V933.37L575.336 930.767V866.118V784.112L780.999 578.883V574.544L572.733 782.377V828.804L233.432 1165.94H322.379L357.958 1130.36H374.88L572.733 933.371ZM506.782 1011.47L468.166 1050.09H456.017L495.067 1088.27H501.576L485.956 1071.78H531.514L591.391 1011.47H506.782ZM499.567 1083.22H506.075L515.621 1093.2H509.547L499.567 1083.22ZM510.253 1097.38L502.01 1088.7L424.343 1165.93H441.699L510.253 1097.38ZM525.006 1102.59L516.328 1093.91L443.868 1166.37H461.224L525.006 1102.59ZM434.323 1118.21H452.546L483.352 1086.97L479.447 1083.5H488.125L495.501 1091.74L457.753 1130.36L422.174 1130.79L434.323 1118.21ZM442.132 1103.89H429.116L402.648 1130.36H418.702L431.285 1118.21H419.57V1116.91H447.339L478.579 1085.67L469.901 1076.55L442.132 1103.89ZM456.885 1067.01H460.79L464.695 1071.35L467.298 1073.95L469.902 1076.55H465.563L463.827 1078.29L454.716 1070.04L456.885 1067.01ZM150.126 644.834L0 794.091V798.43L153.163 645.701V478.22L150.126 481.257V644.834Z" fill="#E7E7E7"/>
<g clip-path="url(#clip0_746_462)">
<path d="M732 176.132L659.099 176.132V248L652 248V169H732V176.132Z" fill="#E7E7E7"/>
<path d="M823 412.868H895.901V341H903V420H823V412.868Z" fill="#E7E7E7"/>
<path d="M831.855 268.961C830.062 268.367 828.27 267.805 826.477 267.276C826.775 266.054 827.041 264.832 827.307 263.61C831.391 243.921 828.701 228.098 819.637 222.879C810.904 217.891 796.66 223.077 782.25 235.564C780.822 236.786 779.428 238.074 778.1 239.363C777.203 238.504 776.273 237.645 775.344 236.819C760.236 223.473 745.096 217.858 736.031 223.11C727.332 228.131 724.742 243.03 728.395 261.661C728.76 263.511 729.158 265.327 729.623 267.177C727.498 267.772 725.406 268.433 723.447 269.126C705.717 275.238 693 284.884 693 294.86C693 305.166 706.547 315.506 724.975 321.782C726.469 322.278 727.963 322.773 729.49 323.203C728.992 325.185 728.561 327.134 728.162 329.149C724.676 347.483 727.398 362.018 736.098 367.006C745.062 372.159 760.137 366.874 774.812 354.09C775.975 353.066 777.137 352.009 778.299 350.885C779.76 352.306 781.287 353.66 782.814 354.982C797.025 367.138 811.07 372.06 819.736 367.072C828.701 361.919 831.623 346.294 827.838 327.266C827.539 325.813 827.207 324.326 826.842 322.807C827.904 322.509 828.934 322.179 829.963 321.849C849.121 315.539 863 305.332 863 294.86C863 284.85 849.918 275.139 831.855 268.961ZM786.932 240.915C799.283 230.212 810.805 226.017 816.051 229.023C821.662 232.227 823.82 245.177 820.301 262.189C820.068 263.312 819.836 264.402 819.537 265.493C812.166 263.841 804.695 262.652 797.191 261.991C792.875 255.847 788.16 249.967 783.047 244.45C784.342 243.228 785.604 242.072 786.932 240.915ZM748.516 312.004C750.209 314.878 751.936 317.752 753.762 320.56C748.582 319.999 743.436 319.173 738.355 318.083C739.816 313.326 741.643 308.404 743.768 303.383C745.295 306.29 746.855 309.163 748.516 312.004ZM738.455 272.265C743.236 271.207 748.316 270.349 753.596 269.688C751.836 272.43 750.109 275.238 748.482 278.079C746.855 280.886 745.262 283.76 743.768 286.667C741.676 281.745 739.916 276.922 738.455 272.265ZM747.553 295.025C749.744 290.466 752.135 286.007 754.658 281.613C757.182 277.22 759.904 272.958 762.76 268.763C767.74 268.4 772.82 268.201 778 268.201C783.18 268.201 788.293 268.4 793.24 268.763C796.062 272.925 798.752 277.187 801.309 281.547C803.865 285.908 806.256 290.367 808.514 294.893C806.289 299.451 803.898 303.944 801.342 308.371C798.818 312.764 796.129 317.026 793.307 321.254C788.359 321.617 783.213 321.782 778 321.782C772.787 321.782 767.74 321.617 762.859 321.32C759.971 317.125 757.248 312.83 754.691 308.437C752.135 304.043 749.777 299.584 747.553 295.025ZM807.518 311.938C809.211 309.031 810.805 306.091 812.365 303.118C814.49 307.908 816.35 312.764 817.977 317.752C812.83 318.908 807.617 319.8 802.371 320.395C804.164 317.62 805.857 314.779 807.518 311.938ZM812.299 286.667C810.738 283.76 809.145 280.853 807.484 278.012C805.857 275.205 804.164 272.43 802.404 269.688C807.75 270.349 812.863 271.241 817.645 272.331C816.117 277.22 814.324 281.977 812.299 286.667ZM778.066 249.504C781.553 253.27 784.84 257.234 787.895 261.33C781.32 261.033 774.713 261.033 768.139 261.33C771.393 257.069 774.746 253.105 778.066 249.504ZM739.551 229.254C745.129 226.017 757.514 230.642 770.562 242.138C771.393 242.864 772.223 243.657 773.086 244.45C767.939 249.967 763.191 255.847 758.842 261.991C751.338 262.652 743.9 263.808 736.529 265.427C736.098 263.742 735.732 262.024 735.367 260.306C732.246 244.318 734.305 232.26 739.551 229.254ZM731.416 316.332C730.021 315.935 728.66 315.506 727.299 315.044C720.227 312.83 712.191 309.329 706.381 304.737C703.027 302.425 700.77 298.857 700.139 294.86C700.139 288.815 710.631 281.085 725.771 275.832C727.664 275.172 729.59 274.577 731.516 274.015C733.773 281.184 736.496 288.22 739.65 295.025C736.463 301.929 733.707 309.064 731.416 316.332ZM770.131 348.705C764.652 353.693 758.311 357.657 751.404 360.366C747.719 362.117 743.469 362.282 739.684 360.796C734.404 357.756 732.213 346.095 735.201 330.404C735.566 328.554 735.965 326.705 736.43 324.888C743.867 326.473 751.371 327.563 758.975 328.125C763.357 334.302 768.172 340.215 773.318 345.765C772.256 346.789 771.193 347.78 770.131 348.705ZM778.266 340.678C774.879 337.044 771.492 333.014 768.205 328.687C771.393 328.819 774.68 328.885 778 328.885C781.42 328.885 784.773 328.819 788.094 328.654C785.039 332.849 781.752 336.846 778.266 340.678ZM821.662 350.588C821.363 354.618 819.371 358.384 816.184 360.928C810.904 363.967 799.648 360.003 787.496 349.63C786.102 348.441 784.707 347.153 783.279 345.831C788.359 340.248 793.041 334.335 797.291 328.125C804.895 327.497 812.465 326.341 819.936 324.656C820.268 326.011 820.566 327.365 820.832 328.687C822.459 335.822 822.725 343.255 821.662 350.588ZM827.705 315.077C826.775 315.374 825.846 315.671 824.883 315.935C822.559 308.734 819.703 301.698 816.416 294.86C819.604 288.121 822.293 281.184 824.551 274.081C826.277 274.577 827.937 275.105 829.531 275.634C845.004 280.919 855.861 288.782 855.861 294.794C855.861 301.268 844.273 309.626 827.705 315.077ZM778 310.121C786.4 310.121 793.207 303.35 793.207 294.992C793.207 286.634 786.4 279.862 778 279.862C769.6 279.862 762.793 286.634 762.793 294.992C762.793 303.35 769.6 310.121 778 310.121Z" fill="#E7E7E7"/>
</g>
<path d="M640 950V850L899.5 590.5V446H903.5V594L644.5 850V950H640Z" fill="#E7E7E7"/>
<path d="M653.5 462V522L620 556.5V561.5L656.5 524.5V462H653.5Z" fill="#E7E7E7"/>
<defs>
<clipPath id="clip0_746_462">
<rect width="251" height="251" fill="white" transform="translate(652 169)"/>
</clipPath>
</defs>
</svg>
