<svg width="53" height="70" viewBox="0 0 53 70" fill="none" xmlns="http://www.w3.org/2000/svg">
<path d="M13.1309 0H20.65V3.14416H16.275V6.28833H20.65V9.43249H13.1309V0Z" fill="white"/>
<path d="M22.1523 0H29.6744V2.73583H25.2994V3.28125H29.6744V9.56958H22.1523V6.69958H26.5273V6.15125H22.1523V0Z" fill="white"/>
<path d="M31.1787 0H38.695V2.73583H34.32V3.28125H38.695V9.56958H31.1787V6.69958H35.5537V6.15125H31.1787V0Z" fill="white"/>
<path fill-rule="evenodd" clip-rule="evenodd" d="M26.2237 70.0003L5.97041 64.377L0 13.7583H52.5L46.5325 64.3712L26.2237 70.0003ZM11.8037 36.6716L12.3608 42.8783H33.8771L33.1566 50.9283L26.2325 52.8008H26.2266L19.3142 50.9341L18.8708 45.9845H12.6379L13.5071 55.732L26.2237 59.2612L38.9608 55.732L40.5125 38.337L40.6641 36.6716L41.7841 24.1037H10.6867L11.2525 30.3133H34.9825L34.4166 36.6716H11.8037Z" fill="white"/>
</svg>
