<svg width="79" height="70" viewBox="0 0 79 70" fill="none" xmlns="http://www.w3.org/2000/svg">
<path d="M55.8555 44.3028L39.6541 53.7377L23.4531 44.3028V25.4325L39.6541 15.9976L55.8555 25.4323V44.3028ZM78.511 37.0453L60.5837 68.2982C59.9329 69.436 58.7296 70 57.4276 70H21.5726C20.2703 70 19.0668 69.4185 18.4156 68.281L0.48835 37.0789C-0.162783 35.9412 -0.162783 34.5052 0.48835 33.3673L18.4156 1.97663C19.0668 0.83921 20.2703 0 21.5726 0H57.4279C58.7299 0 59.9329 0.83921 60.584 1.97663L78.5113 33.4368C79.1629 34.5742 79.1629 35.908 78.511 37.0451V37.0453ZM63.6666 49.2948V21.2571L39.4887 7.19819L15.3376 21.254V49.2941L39.5119 63.3523L63.6666 49.2949V49.2948Z" fill="white"/>
</svg>
