<svg width="48" height="70" viewBox="0 0 48 70" fill="none" xmlns="http://www.w3.org/2000/svg">
<path d="M0 13.0966C0 5.86359 5.7834 0 12.9176 0H35.0824C42.2166 0 48 5.86359 48 13.0966C48 17.6766 45.6811 21.7077 42.1687 24.0484C45.6811 26.3893 48 30.4202 48 35.0003C48 42.2334 42.2166 48.097 35.0824 48.097H34.8019C31.4574 48.097 28.4097 46.8083 26.1156 44.6939V56.7611C26.1156 64.0906 20.1811 70 12.9872 70C5.87078 70 0 64.1543 0 56.9033C0 52.3235 2.31873 48.2928 5.83087 45.9519C2.31846 43.611 0 39.5801 0 35.0003C0 30.4202 2.31886 26.3893 5.83114 24.0484C2.319 21.7077 0 17.6766 0 13.0966ZM21.8844 26.1935H12.9176C8.12019 26.1935 4.23129 30.1365 4.23129 35.0003C4.23129 39.8453 8.09026 43.7765 12.862 43.8069L12.9176 43.8067H21.8844V26.1935ZM26.1156 35.0003C26.1156 39.864 30.0045 43.807 34.8019 43.807H35.0824C39.8798 43.807 43.7687 39.864 43.7687 35.0003C43.7687 30.1365 39.8798 26.1935 35.0824 26.1935H34.8019C30.0045 26.1935 26.1156 30.1365 26.1156 35.0003ZM12.9176 48.097L12.862 48.0968C8.09026 48.1271 4.23129 52.0583 4.23129 56.9033C4.23129 61.7493 8.17225 65.71 12.9872 65.71C17.8797 65.71 21.8844 61.6856 21.8844 56.7611V48.097H12.9176ZM12.9176 4.28996C8.12019 4.28996 4.23129 8.23293 4.23129 13.0966C4.23129 17.9605 8.12033 21.9033 12.9176 21.9033H21.8844V4.28982H12.9176V4.28996ZM26.1156 21.9033H35.0824C39.8798 21.9033 43.7687 17.9605 43.7687 13.0966C43.7687 8.23279 39.8798 4.28996 35.0824 4.28996H26.1156V21.9033Z" fill="white"/>
</svg>
