<svg width="70" height="70" viewBox="0 0 70 70" fill="none" xmlns="http://www.w3.org/2000/svg">
<path d="M68.675 31.8806L38.1107 1.32066C37.6922 0.901974 37.1953 0.569841 36.6485 0.343237C36.1016 0.116633 35.5154 0 34.9234 0C34.3315 0 33.7453 0.116633 33.1984 0.343237C32.6516 0.569841 32.1547 0.901974 31.7362 1.32066L25.3923 7.66452L33.4425 15.7147C34.3919 15.3905 35.4133 15.3398 36.3902 15.5683C37.367 15.7968 38.2599 16.2954 38.967 17.007C39.6741 17.7187 40.1669 18.6148 40.3892 19.5931C40.6114 20.5714 40.5541 21.5925 40.2238 22.5398L47.9809 30.3012C49.1285 29.8971 50.3795 29.8959 51.528 30.2977C52.6764 30.6995 53.6537 31.4805 54.2991 32.5119C54.9444 33.5433 55.2193 34.7638 55.0784 35.9723C54.9376 37.1808 54.3894 38.3053 53.5241 39.1607C52.6481 40.042 51.4934 40.5919 50.257 40.7164C49.0207 40.8409 47.7794 40.5322 46.7454 39.8432C45.7113 39.1542 44.9486 38.1275 44.5874 36.9385C44.2262 35.7496 44.2891 34.4721 44.7652 33.3243L37.5332 26.088V45.1327C38.6324 45.6768 39.512 46.5813 40.0253 47.6953C40.5386 48.8093 40.6545 50.0656 40.3538 51.2547C40.0531 52.4439 39.354 53.4941 38.3729 54.2302C37.3918 54.9664 36.188 55.344 34.9622 55.3003C33.7364 55.2565 32.5626 54.7939 31.6366 53.9896C30.7105 53.1854 30.088 52.088 29.8729 50.8804C29.6578 49.6729 29.8631 48.428 30.4545 47.3535C31.046 46.2789 31.9878 45.4395 33.1231 44.9752V25.7555C32.4681 25.4871 31.8727 25.0917 31.3712 24.5921C30.8698 24.0925 30.4721 23.4986 30.2013 22.8446C29.9304 22.1907 29.7917 21.4895 29.793 20.7817C29.7944 20.0738 29.9359 19.3733 30.2093 18.7203L22.2773 10.784L1.32066 31.7406C0.901974 32.159 0.569841 32.6559 0.343237 33.2028C0.116634 33.7497 0 34.3358 0 34.9278C0 35.5198 0.116634 36.1059 0.343237 36.6528C0.569841 37.1997 0.901974 37.6966 1.32066 38.1151L31.885 68.6793C32.3034 69.098 32.8003 69.4302 33.3472 69.6568C33.8941 69.8834 34.4802 70 35.0722 70C35.6642 70 36.2503 69.8834 36.7972 69.6568C37.3441 69.4302 37.841 69.098 38.2594 68.6793L68.6794 38.2594C69.5239 37.4137 69.9982 36.2674 69.9982 35.0722C69.9982 33.877 69.5239 32.7307 68.6794 31.8849" fill="white"/>
</svg>
