<svg width="53" height="70" viewBox="0 0 53 70" fill="none" xmlns="http://www.w3.org/2000/svg">
<path d="M6.06641 0H9.22226V3.11793H12.1098V0H15.2656V9.43839H12.1098V6.27962H9.22226V9.43839H6.06932V0H6.06641Z" fill="white"/>
<path d="M19.4134 3.1296H16.6367V0H25.3489V3.1296H22.5693V9.43839H19.4134V3.1296Z" fill="white"/>
<path d="M26.7314 0H30.0215L32.0456 3.31627L34.0669 0H37.3569V9.43839H34.2157V4.76003L32.0456 8.11713H31.9902L29.8173 4.76294V9.43839H26.7314V0Z" fill="white"/>
<path d="M38.9258 0H42.0845V6.32045H46.5179V9.4413H38.9258V0Z" fill="white"/>
<path fill-rule="evenodd" clip-rule="evenodd" d="M5.96753 64.3768L0 13.7578H52.5003L46.5298 64.371L26.221 70.0002L5.96753 64.3768ZM18.0339 36.6684L17.468 30.31H41.2244L41.7786 24.1033H10.6867L12.3609 42.878H33.8773L33.1569 50.928L26.2327 52.8005H26.2268L19.3143 50.9339L18.8709 45.9842H12.6351L13.5042 55.7318L26.221 59.261L38.9581 55.7318L40.5098 38.3367L40.6615 36.6713H18.0339V36.6684Z" fill="white"/>
</svg>
