<svg width="32" height="72" viewBox="0 0 32 72" fill="none" xmlns="http://www.w3.org/2000/svg">
<path d="M31.3509 28.5749C27.5997 11.8762 18.7369 6.40075 17.7846 4.30244C16.7387 2.81426 15.6124 0 15.6124 0C15.6013 0.0585366 15.6013 0.0945591 15.5901 0.153096V0.189118C15.5901 0.236398 15.579 0.258912 15.579 0.306191V0.353471H15.5678V0.504315H15.5567C15.5567 0.526829 15.5567 0.562852 15.5455 0.574109V0.643902C15.5455 0.666417 15.5455 0.691182 15.5344 0.702439V0.760976C15.5344 0.796998 15.5344 0.830769 15.5232 0.855535V0.866792C15.5213 0.918484 15.5138 0.969812 15.5009 1.01989V1.0424C15.4898 1.05366 15.4898 1.06492 15.4898 1.07842V1.1257H15.4786V1.1955H15.4675V1.24278H15.4452V1.31257H15.434V1.37111H15.4229V1.41839H15.4117V1.46567H15.4006V1.51295H15.3894V1.56023H15.3783V1.59625H15.3671V1.64353H15.356V1.69081H15.3448C15.3337 1.69081 15.3337 1.70206 15.3337 1.70206V1.72458L15.3225 1.74709C15.3225 1.76961 15.3113 1.79437 15.3002 1.81689C15.289 1.82814 15.289 1.82814 15.289 1.8394V1.86191H15.2779V1.88443H15.2556V1.94296H15.2333V1.97899H15.2221V1.99024H15.211V2.01276H15.1998V2.04878H15.1887V2.07129H15.1664V2.10732H15.1552V2.12983H15.1441V2.15235H15.1329V2.18837H15.1218V2.21088H15.1106V2.22214H15.0995V2.24465H15.0772V2.28068H15.066V2.29193H15.0549V2.31445H15.0437V2.35047H15.0326V2.36173H15.0214V2.38424H15.0103V2.3955H14.9991V2.43152H14.9768V2.44278H14.9657V2.46529H14.9545V2.47655H14.9434V2.49906H14.9322V2.52158C14.9211 2.52158 14.9211 2.53283 14.9211 2.53283V2.54409H14.9099L14.8742 2.60263C14.8742 2.60263 14.8519 2.62514 14.8519 2.63865C14.8408 2.63865 14.8408 2.64991 14.8408 2.64991V2.66116H14.8296V2.67242H14.8185V2.69493H14.7962V2.70619H14.785V2.71745H14.7739V2.75122H14.7627V2.76248H14.7516V2.77373H14.7404V2.79625H14.7293V2.77373H14.707V2.78499H14.6958V2.8075H14.6847V2.83002H14.6735V2.84128H14.6624V2.85253H14.6512V2.86379H14.6401V2.8863H14.6178V2.89756H14.6066V2.92007H14.5955V2.93133H14.5843V2.94259H14.5732V2.97861H14.562V2.98987H14.5509V3.00113H14.5397V3.01238H14.5285V3.02364H14.5062V3.04615H14.4951V3.05741H14.4839V3.06867H14.4728V3.09118H14.4616V3.10244H14.4393V3.1137H14.4282V3.12495H14.417V3.14747H14.4059V3.16998H14.3947V3.18124H14.3836V3.1925H14.3613V3.20375H14.3501V3.21501H14.339V3.23752H14.3278V3.24878H14.3167V3.27129H14.3055V3.28255H14.2944V3.29381H14.2832V3.30507H14.2721V3.31632H14.2498V3.32758C14.2386 3.32758 14.2386 3.33884 14.2386 3.33884L14.2275 3.35009L14.2163 3.36135V3.38386H14.2052V3.39512H14.194V3.40638H14.1829V3.41764H14.1717L14.1494 3.44015V3.45141C14.1271 3.46266 14.1271 3.47392 14.1026 3.49869C14.1026 3.49869 14.0803 3.5212 14.0669 3.5212C14.0312 3.54371 13.9866 3.59099 13.9509 3.62702C13.9286 3.63827 13.9041 3.66304 13.8818 3.6743C13.835 3.72158 13.7881 3.75535 13.7413 3.79137C13.6722 3.86116 13.6008 3.90844 13.5205 3.97824H13.5093L12.963 4.46004H12.9518C12.4522 4.90582 11.859 5.47993 11.1855 6.15985L11.1275 6.21839C7.08415 10.4398 0.708006 19.245 0.0456367 33.4694C-0.0234995 34.6424 -0.0123504 35.7906 0.0567858 36.9051V36.9276C0.382395 42.5336 2.12418 47.3178 4.30755 51.2105C5.16617 52.7595 6.10732 54.1666 7.05961 55.4319C10.3358 59.7951 13.6811 62.3865 14.5285 63.0191C15.8421 66.0788 15.7239 71.3561 15.7239 71.3561L17.6397 72C17.6397 72 17.2449 66.8983 17.7913 64.424C17.9653 63.6608 18.36 63.0056 18.8261 62.4428C19.1518 62.2199 20.0817 61.54 21.1968 60.5088C21.2548 60.4503 21.2905 60.403 21.3373 60.3445C25.8557 56.0871 34.3015 45.6045 31.4089 28.5321L31.3509 28.5749Z" fill="white"/>
</svg>
