<svg width="64" height="72" viewBox="0 0 64 72" fill="none" xmlns="http://www.w3.org/2000/svg">
<path d="M31.9942 71.3608C31.0202 71.3608 30.11 71.0987 29.26 70.6454L20.6219 65.5171C19.3292 64.7981 19.9773 64.536 20.3669 64.405C22.1235 63.8206 22.4494 63.6931 24.2662 62.6589C24.4646 62.5279 24.7231 62.5881 24.9214 62.7192L31.5444 66.6858C31.8064 66.8133 32.1323 66.8133 32.3271 66.6858L58.2485 51.6798C58.5106 51.5523 58.6381 51.2902 58.6381 50.9644V21.0089C58.6381 20.6867 58.5106 20.4246 58.2485 20.2971L32.3271 5.35478C32.0685 5.22373 31.7427 5.22373 31.5444 5.35478L5.61582 20.2935C5.35728 20.421 5.22624 20.7504 5.22624 21.0054V50.9573C5.22624 51.2158 5.35728 51.5452 5.61582 51.6727L12.6992 55.7704C16.5312 57.7112 18.9396 55.4339 18.9396 53.1673V23.6085C18.9396 23.2189 19.2619 22.8258 19.7187 22.8258H23.0337C23.4162 22.8258 23.8129 23.1517 23.8129 23.6085V53.1708C23.8129 58.3027 21.0221 61.2954 16.1487 61.2954C14.6542 61.2954 13.4854 61.2954 10.1704 59.6662L3.3527 55.7739C2.52203 55.291 1.83265 54.5986 1.35347 53.7658C0.874285 52.9329 0.622084 51.9889 0.62207 51.0281V21.0727C0.62207 19.1248 1.65978 17.3044 3.3527 16.3304L29.2635 1.32436C30.1047 0.874515 31.0438 0.63916 31.9977 0.63916C32.9516 0.63916 33.8907 0.874515 34.7319 1.32436L60.6462 16.3304C62.3427 17.3008 63.3769 19.1248 63.3769 21.0727V51.0281C63.3769 52.9725 62.3391 54.7929 60.6462 55.7739L34.7319 70.7764C33.8783 71.166 32.9044 71.3608 31.9942 71.3608ZM39.9841 50.7625C28.6154 50.7625 26.2779 45.5633 26.2779 41.1504C26.2779 40.7608 26.6037 40.3677 27.0571 40.3677H30.4358C30.8254 40.3677 31.1477 40.6262 31.1477 41.0194C31.6683 44.4583 33.1594 46.1512 40.0514 46.1512C45.5056 46.1512 47.8502 44.9117 47.8502 41.9898C47.8502 40.3004 47.195 39.0679 38.6879 38.225C31.6081 37.5167 27.1917 35.9477 27.1917 30.2987C27.1917 25.0394 31.6081 21.9192 39.0173 21.9192C47.3296 21.9192 51.4237 24.7844 51.9408 31.0142C51.9346 31.2244 51.8655 31.4279 51.7425 31.5985C51.6114 31.726 51.4202 31.8571 51.2254 31.8571H47.8502C47.6834 31.8535 47.5224 31.7945 47.3929 31.6893C47.2633 31.5841 47.1725 31.4388 47.1348 31.2762C46.3521 27.6921 44.3404 26.5304 39.0173 26.5304C33.0354 26.5304 32.32 28.6094 32.32 30.1677C32.32 32.0483 33.1594 32.6327 41.2237 33.6739C49.2137 34.7117 52.9821 36.2062 52.9821 41.7985C52.9112 47.5183 48.2398 50.7625 39.9841 50.7625Z" fill="white"/>
</svg>
