<svg width="70" height="61" viewBox="0 0 70 61" fill="none" xmlns="http://www.w3.org/2000/svg">
<path d="M57.1758 19.7678C56.4375 19.5227 55.6992 19.2912 54.9609 19.0734C55.084 18.5696 55.1934 18.0659 55.3027 17.5621C56.9844 9.44735 55.877 2.9256 52.1445 0.774372C48.5488 -1.28154 42.6836 0.856064 36.75 6.00266C36.1621 6.50643 35.5879 7.03743 35.041 7.56843C34.6719 7.21443 34.2891 6.86043 33.9062 6.52005C27.6855 1.01945 21.4512 -1.29516 17.7188 0.86968C14.1367 2.93921 13.0703 9.07973 14.5742 16.7588C14.7246 17.5212 14.8887 18.2701 15.0801 19.0325C14.2051 19.2776 13.3437 19.5499 12.5371 19.8359C5.23633 22.3547 0 26.3304 0 30.4422C0 34.6902 5.57813 38.9518 13.166 41.5387C13.7813 41.7429 14.3965 41.9472 15.0254 42.1242C14.8203 42.9411 14.6426 43.7444 14.4785 44.5749C13.043 52.1314 14.1641 58.1222 17.7461 60.1781C21.4375 62.3021 27.6445 60.1237 33.6875 54.8545C34.166 54.4324 34.6445 53.9968 35.123 53.5338C35.7246 54.1193 36.3535 54.6775 36.9824 55.2221C42.834 60.2326 48.6172 62.2613 52.1855 60.2054C55.877 58.0814 57.0801 51.6413 55.5215 43.7989C55.3984 43.1998 55.2617 42.5871 55.1113 41.9608C55.5488 41.8383 55.9727 41.7021 56.3965 41.5659C64.2852 38.9654 70 34.7583 70 30.4422C70 26.3168 64.6133 22.3138 57.1758 19.7678V19.7678ZM38.6777 8.20835C43.7637 3.79698 48.5078 2.06783 50.668 3.30683C52.9785 4.62751 53.8672 9.96473 52.418 16.9766C52.3223 17.4396 52.2266 17.8889 52.1035 18.3382C49.0684 17.6574 45.9922 17.1672 42.9023 16.8949C41.125 14.3625 39.1836 11.939 37.0781 9.66519C37.6113 9.16142 38.1309 8.68489 38.6777 8.20835V8.20835ZM22.8594 37.5086C23.5566 38.6931 24.2676 39.8776 25.0195 41.0349C22.8867 40.8035 20.7676 40.4631 18.6758 40.0138C19.2773 38.0532 20.0293 36.0245 20.9043 33.955C21.5332 35.1531 22.1758 36.3377 22.8594 37.5086V37.5086ZM18.7168 21.1293C20.6855 20.6936 22.7773 20.3396 24.9512 20.0673C24.2266 21.1974 23.5156 22.3547 22.8457 23.5256C22.1758 24.6829 21.5195 25.8675 20.9043 27.0656C20.043 25.0369 19.3184 23.0491 18.7168 21.1293ZM22.4629 30.5103C23.3652 28.6314 24.3496 26.7933 25.3887 24.9825C26.4277 23.1716 27.5488 21.4152 28.7246 19.6861C30.7754 19.5363 32.8672 19.4546 35 19.4546C37.1328 19.4546 39.2383 19.5363 41.2754 19.6861C42.4375 21.4016 43.5449 23.158 44.5977 24.9552C45.6504 26.7524 46.6348 28.5905 47.5645 30.4558C46.6484 32.3347 45.6641 34.1864 44.6113 36.0109C43.5723 37.8217 42.4648 39.5781 41.3027 41.3209C39.2656 41.4706 37.1465 41.5387 35 41.5387C32.8535 41.5387 30.7754 41.4706 28.7656 41.3481C27.5762 39.619 26.4551 37.849 25.4023 36.0381C24.3496 34.2273 23.3789 32.3892 22.4629 30.5103ZM47.1543 37.4813C47.8516 36.2832 48.5078 35.0714 49.1504 33.846C50.0254 35.8203 50.791 37.8217 51.4609 39.8776C49.3418 40.3542 47.1953 40.7218 45.0352 40.9669C45.7734 39.8232 46.4707 38.6523 47.1543 37.4813ZM49.123 27.0656C48.4805 25.8675 47.8242 24.6693 47.1406 23.4984C46.4707 22.3411 45.7734 21.1974 45.0488 20.0673C47.25 20.3396 49.3555 20.7072 51.3242 21.1565C50.6953 23.1716 49.957 25.1322 49.123 27.0656V27.0656ZM35.0273 11.7483C36.4629 13.3005 37.8164 14.9343 39.0742 16.6226C36.3672 16.5001 33.6465 16.5001 30.9395 16.6226C32.2793 14.8663 33.6602 13.2324 35.0273 11.7483ZM19.168 3.40213C21.4648 2.06783 26.5645 3.97398 31.9375 8.71212C32.2793 9.01166 32.6211 9.33842 32.9766 9.66519C30.8574 11.939 28.9023 14.3625 27.1113 16.8949C24.0215 17.1672 20.959 17.6438 17.9238 18.3109C17.7461 17.6166 17.5957 16.9086 17.4453 16.2006C16.1602 9.61073 17.0078 4.64113 19.168 3.40213V3.40213ZM15.8184 39.2922C15.2441 39.1288 14.6836 38.9518 14.123 38.7612C11.2109 37.849 7.90234 36.4057 5.50977 34.5132C4.12891 33.5601 3.19922 32.0897 2.93945 30.4422C2.93945 27.9506 7.25977 24.7646 13.4941 22.5998C14.2734 22.3275 15.0664 22.0824 15.8594 21.8509C16.7891 24.8055 17.9102 27.7055 19.209 30.5103C17.8965 33.3559 16.7617 36.2968 15.8184 39.2922V39.2922ZM31.7598 52.6352C29.5039 54.6911 26.8926 56.325 24.0488 57.4414C22.5312 58.163 20.7813 58.2311 19.2227 57.6184C17.0488 56.3658 16.1465 51.5596 17.377 45.0923C17.5273 44.3299 17.6914 43.5674 17.8828 42.8186C20.9453 43.4721 24.0352 43.9214 27.166 44.1529C28.9707 46.6989 30.9531 49.1361 33.0723 51.4235C32.6348 51.8455 32.1973 52.254 31.7598 52.6352ZM35.1094 49.3267C33.7148 47.829 32.3203 46.1679 30.9668 44.3843C32.2793 44.4388 33.6328 44.466 35 44.466C36.4082 44.466 37.7891 44.4388 39.1562 44.3707C37.8984 46.0999 36.5449 47.7473 35.1094 49.3267V49.3267ZM52.9785 53.4113C52.8555 55.0724 52.0352 56.6245 50.7227 57.6729C48.5488 58.9255 43.9141 57.2917 38.9102 53.0164C38.3359 52.5263 37.7617 51.9953 37.1738 51.4507C39.2656 49.1497 41.1934 46.7125 42.9434 44.1529C46.0742 43.8942 49.1914 43.4176 52.2676 42.7232C52.4043 43.2815 52.5273 43.8397 52.6367 44.3843C53.3066 47.3252 53.416 50.3887 52.9785 53.4113V53.4113ZM55.4668 38.7748C55.084 38.8973 54.7012 39.0199 54.3047 39.1288C53.3477 36.1607 52.1719 33.2606 50.8184 30.4422C52.1309 27.6647 53.2383 24.8055 54.168 21.8782C54.8789 22.0824 55.5625 22.3002 56.2188 22.5181C62.5898 24.6965 67.0605 27.937 67.0605 30.415C67.0605 33.0836 62.2891 36.5283 55.4668 38.7748ZM35 36.7325C38.459 36.7325 41.2617 33.9414 41.2617 30.4967C41.2617 27.052 38.459 24.2608 35 24.2608C31.541 24.2608 28.7383 27.052 28.7383 30.4967C28.7383 33.9414 31.541 36.7325 35 36.7325Z" fill="white"/>
</svg>
