<svg width="74" height="69" viewBox="0 0 74 69" fill="none" xmlns="http://www.w3.org/2000/svg">
<path d="M41.9984 66.1111C43.3118 65.1858 45.1882 63.7049 46.2201 62.7794C64.2079 69.8289 70.0764 56.0507 69.6079 50.7921C69.089 44.9693 61.76 28.3522 36.8386 28.3518C35.6668 31.0611 32.2401 32.4203 29.4058 30.8008C25.9276 28.8133 25.9276 23.8179 29.4058 21.8305C32.1078 20.2864 35.3477 21.4501 36.6596 23.9094C51.7898 23.8336 68.7521 30.1727 73.4953 47.8122C76.9164 60.5334 62.5639 75.3634 41.9984 66.1111ZM51.3071 48.1191C53.8103 47.8281 55.9802 45.7671 55.9802 42.9743C55.9802 38.9994 51.5857 36.5017 48.0891 38.4892C45.0217 40.2326 44.6459 44.2905 46.9603 46.6023C38.658 61.8718 20.116 67.8421 10.3312 62.0467C4.91275 58.8374 -0.67482 47.3484 12.352 36.7735C11.9767 35.5705 11.4138 33.5344 11.1324 32.0536C-12.2885 49.4643 4.57079 77.1678 30.9782 66.3793C38.1177 63.4625 45.8588 58.3647 51.3069 48.1191H51.3071ZM22.7472 54.0303C26.2487 56.0178 30.6494 53.5199 30.6494 49.5452C30.6494 46.228 27.5846 43.9419 24.5353 44.4306C5.16597 8.74025 45.9461 -12.4543 51.1924 21.3181L55.8833 22.7064C52.4724 -4.46023 31.8815 -1.97442 25.2851 3.5277C20.3414 7.6514 7.12552 22.1616 20.7797 47.017C19.464 49.3538 20.1197 52.539 22.7472 54.0303Z" fill="white"/>
</svg>
