<svg width="70" height="53" viewBox="0 0 70 53" fill="none" xmlns="http://www.w3.org/2000/svg">
<path d="M33.0113 40.0687C32.9456 40.1879 32.9784 40.1349 33.0113 40.0687V40.0687ZM60.2561 30.4632C58.0557 30.4632 55.8859 30.9711 53.9129 31.9537C53.2677 30.6399 52.6006 29.4916 52.4912 28.6304C52.36 27.6257 52.2178 27.0295 52.3709 25.8371C52.524 24.6447 53.213 22.9555 53.2021 22.834C53.1911 22.7126 53.049 22.1054 51.6382 22.0943C50.2274 22.0833 49.0134 22.3703 48.8713 22.7457C48.6216 23.4316 48.4278 24.1368 48.2916 24.8545C48.0401 26.1463 45.4722 30.7613 44.0177 33.1682C43.5365 32.2297 43.1318 31.4017 43.0443 30.7392C42.9131 29.7345 42.7709 29.1383 42.924 27.9459C43.0771 26.7535 43.7661 25.0643 43.7552 24.9428C43.7443 24.8214 43.6021 24.2141 42.1935 24.2031C40.7849 24.1921 39.5687 24.4791 39.4266 24.8545C39.2844 25.2299 39.1313 26.1132 38.8469 26.9633C38.5626 27.8134 35.1395 35.4978 34.2449 37.4962C33.7855 38.5119 33.3918 39.329 33.1075 39.881C33.0637 39.9693 33.0309 40.0245 33.0091 40.0687C33.0419 40.0135 33.0637 39.9583 33.0637 39.9804C32.8231 40.4551 32.681 40.7201 32.681 40.7201V40.7311C32.4951 41.0844 32.2873 41.4046 32.1888 41.4046C32.1232 41.4046 31.981 40.4772 32.2216 39.2075C32.7357 36.5356 33.9496 32.3843 33.9387 32.2408C33.9277 32.1635 34.1683 31.4458 33.1403 31.0594C32.1451 30.6951 31.7842 31.3023 31.6967 31.3023C31.6092 31.3023 31.5436 31.5231 31.5436 31.5231C31.5436 31.5231 32.6482 26.8418 29.4219 26.8418C27.4096 26.8418 24.6099 29.0721 23.2341 31.0925C22.3701 31.5673 20.5 32.5941 18.5314 33.6871L16.2676 34.9458C16.2129 34.8906 16.1692 34.8354 16.1145 34.7802C12.1992 30.5626 4.97245 27.5816 5.27867 21.9177C5.38803 19.853 6.0989 14.432 19.1767 7.85173C29.8944 2.46383 38.462 3.94329 39.9384 7.23344C42.0601 11.9258 35.356 20.659 24.2271 21.9177C19.9838 22.3924 17.7549 20.7363 17.1972 20.118C16.6176 19.4666 16.5301 19.4335 16.3113 19.5549C15.9504 19.7537 16.1801 20.3278 16.3113 20.6701C16.6394 21.5423 18.0065 23.088 20.3359 23.8608C22.381 24.5343 27.3549 24.9097 33.3678 22.558C40.1243 19.9303 45.3847 12.6103 43.8405 6.48267C42.27 0.255677 32.0423 -1.78686 22.3723 1.67994C16.6088 3.74456 10.3772 6.99055 5.89548 11.2192C0.569442 16.2537 -0.281411 20.6369 0.0685544 22.4697C1.31531 28.9727 10.1935 33.2124 13.7456 36.3479L13.2535 36.624C11.4709 37.5183 4.70341 41.0955 3.00827 44.8714C1.09439 49.1552 3.32542 52.2246 4.78871 52.6441C9.36014 53.9248 14.0387 51.6173 16.5541 47.8303C19.0695 44.0434 18.7633 39.0971 17.604 36.8448C17.5931 36.8117 17.5712 36.7896 17.5603 36.7565C18.8726 35.9717 20.196 35.2062 21.5302 34.46C21.0927 35.6524 20.7756 37.0877 20.6115 39.1633C20.4147 41.5923 21.4099 44.7389 22.7004 45.9755C23.2691 46.5165 23.9559 46.5275 24.3846 46.5275C25.8938 46.5275 26.5719 45.2689 27.3265 43.7673C28.2561 41.9346 29.0763 39.8037 29.0763 39.8037C29.0763 39.8037 28.0483 45.567 30.859 45.567C31.887 45.567 32.915 44.2311 33.3743 43.5465V43.5576C33.3743 43.5576 33.3962 43.5134 33.4509 43.4251C33.5603 43.2595 33.6149 43.1601 33.6149 43.1601V43.127C34.0305 42.4093 34.9382 40.7643 36.3053 38.0482C38.077 34.5373 39.77 30.1541 39.77 30.1541C39.934 31.1168 40.1615 32.0685 40.448 33.0026C40.7542 34.0515 41.3995 35.1997 41.9135 36.3148C41.4979 36.8889 41.2464 37.2202 41.2464 37.2202C41.2464 37.229 41.2508 37.2356 41.2573 37.2422C40.9292 37.6839 40.5574 38.1586 40.1746 38.6223C38.7769 40.3005 37.1124 42.2216 36.8937 42.7737C36.6312 43.4251 36.6968 43.9109 37.1999 44.2863C37.5717 44.5733 38.2279 44.6175 38.9169 44.5623C40.1746 44.474 41.0605 44.1648 41.487 43.9661C42.2737 43.6815 43.0172 43.2876 43.6961 42.7958C45.0632 41.78 45.8944 40.3226 45.8178 38.4015C45.7741 37.3416 45.435 36.2817 45.0194 35.288C45.1397 35.1114 45.271 34.9237 45.3913 34.736C46.8145 32.5922 48.0968 30.3564 49.23 28.0431C49.394 29.0058 49.6193 29.9575 49.908 30.8916C50.1705 31.7859 50.6845 32.7685 51.1548 33.7291C49.1206 35.3962 47.8629 37.3284 47.4276 38.5981C46.6184 40.9497 47.2527 42.0097 48.4447 42.2525C48.9806 42.363 49.7462 42.109 50.3149 41.8661C51.1592 41.5813 51.9553 41.1683 52.6749 40.6406C54.042 39.6248 55.3653 38.2006 55.2756 36.2685C55.2428 35.3962 55.0022 34.524 54.6851 33.6849C56.4021 32.9562 58.6331 32.5588 61.4766 32.89C67.566 33.6076 68.758 37.4498 68.5284 39.0507C68.2987 40.6516 67.0192 41.5459 66.5926 41.8109C66.1661 42.0759 66.0349 42.1753 66.0677 42.374C66.1224 42.6611 66.3192 42.65 66.6801 42.5838C67.1832 42.4954 69.8736 41.281 69.9939 38.311C70.1688 34.5571 66.5926 30.4279 60.2604 30.461L60.2561 30.4632ZM13.3191 46.4392C11.3068 48.6584 8.48741 49.4975 7.27347 48.7909C5.97204 48.0269 6.48605 44.761 8.96643 42.3961C10.4757 40.9608 12.4223 39.6359 13.7128 38.8189C14.0081 38.6422 14.4346 38.3772 14.9596 38.0571C15.0022 38.0295 15.046 38.0037 15.0908 37.9798C15.1893 37.9135 15.2986 37.8583 15.408 37.7921C16.3135 41.1485 15.4408 44.1074 13.3191 46.437V46.4392ZM28.0133 36.3479C27.3134 38.0813 25.8391 42.4977 24.9402 42.2658C24.1746 42.0671 23.7044 38.6996 24.7871 35.3874C25.3339 33.7202 26.4931 31.7329 27.1821 30.9601C28.2867 29.7124 29.5007 29.315 29.785 29.8118C30.1678 30.4632 28.4508 35.2659 28.0133 36.3479ZM40.1527 42.1996C39.8575 42.3541 39.584 42.4535 39.4528 42.3762C39.3544 42.321 39.5731 42.1112 39.5731 42.1112C39.5731 42.1112 41.0933 40.4662 41.6948 39.7154C42.0447 39.2738 42.4494 38.7548 42.8868 38.1807C42.8868 38.2359 42.8978 38.2911 42.8978 38.3574C42.8847 40.3337 41.0036 41.6696 40.1506 42.1996H40.1527ZM49.5143 40.0466C49.2956 39.892 49.3284 39.3731 50.0611 37.7612C50.3455 37.1318 51.0017 36.0719 52.1391 35.0562C52.2681 35.4404 52.3381 35.8423 52.3468 36.2486C52.3359 38.7328 50.5751 39.6602 49.5143 40.0466Z" fill="white"/>
</svg>
