<svg width="51" height="78" viewBox="0 0 51 78" fill="none" xmlns="http://www.w3.org/2000/svg">
<path d="M26 31L1 55.5V76L26 52L50.5 76V55.5L26 31Z" fill="#5A189A"/>
<path d="M26 31L26.3536 30.6464L26.0036 30.2964L25.65 30.6429L26 31ZM1 55.5L0.650036 55.1429L0.5 55.2899V55.5H1ZM1 76H0.5V77.1731L1.34627 76.3607L1 76ZM26 52L26.3499 51.6428L26.0035 51.3035L25.6537 51.6393L26 52ZM50.5 76L50.1501 76.3572L51 77.1897V76H50.5ZM50.5 55.5H51V55.2929L50.8536 55.1464L50.5 55.5ZM25.65 30.6429L0.650036 55.1429L1.34996 55.8571L26.35 31.3571L25.65 30.6429ZM0.5 55.5V76H1.5V55.5H0.5ZM1.34627 76.3607L26.3463 52.3607L25.6537 51.6393L0.653734 75.6393L1.34627 76.3607ZM25.6501 52.3572L50.1501 76.3572L50.8499 75.6428L26.3499 51.6428L25.6501 52.3572ZM51 76V55.5H50V76H51ZM50.8536 55.1464L26.3536 30.6464L25.6464 31.3536L50.1464 55.8536L50.8536 55.1464Z" fill="#5A189A"/>
<path d="M26 1L1 25.5V46L26 22L50.5 46V25.5L26 1Z" fill="#5A189A"/>
<path d="M26 1L26.3536 0.646447L26.0036 0.296446L25.65 0.642894L26 1ZM1 25.5L0.650036 25.1429L0.5 25.2899V25.5H1ZM1 46H0.5V47.1731L1.34627 46.3607L1 46ZM26 22L26.3499 21.6428L26.0035 21.3035L25.6537 21.6393L26 22ZM50.5 46L50.1501 46.3572L51 47.1897V46H50.5ZM50.5 25.5H51V25.2929L50.8536 25.1464L50.5 25.5ZM25.65 0.642894L0.650036 25.1429L1.34996 25.8571L26.35 1.35711L25.65 0.642894ZM0.5 25.5V46H1.5V25.5H0.5ZM1.34627 46.3607L26.3463 22.3607L25.6537 21.6393L0.653734 45.6393L1.34627 46.3607ZM25.6501 22.3572L50.1501 46.3572L50.8499 45.6428L26.3499 21.6428L25.6501 22.3572ZM51 46V25.5H50V46H51ZM50.8536 25.1464L26.3536 0.646447L25.6464 1.35355L50.1464 25.8536L50.8536 25.1464Z" fill="#5A189A"/>
</svg>
