<svg width="63" height="70" viewBox="0 0 63 70" fill="none" xmlns="http://www.w3.org/2000/svg">
<path d="M31.5 0.0114746L63 17.4885V52.454L31.5 69.9311L0 52.454V17.4885L31.5 0.0114746Z" fill="white"/>
<path d="M57.3772 51.2416L32.5458 65.034V54.3078L48.0224 45.9484L57.3772 51.2416ZM59.0769 49.7375V20.9164L49.9956 26.0577V44.5957L59.0769 49.7375ZM5.52692 51.2413L30.3585 65.0226V54.2962L14.8819 45.9484L5.52692 51.2416V51.2413ZM3.82715 49.7375V20.9164L12.9087 26.0577V44.5957L3.82715 49.7375ZM4.88535 19.051L30.3585 4.91992V15.2968L14.0381 24.0992L13.9072 24.1692L4.88535 19.0507V19.051ZM58.0072 19.051L32.5458 4.91968V15.2966L48.8544 24.1105L48.9851 24.1805L58.0072 19.0505V19.051Z" fill="#5A189A"/>
<path d="M30.3584 51.8595L15.0957 43.6164V27.3055L30.3584 35.9449V51.8595ZM32.5457 51.8595L47.8085 43.6283V27.3055L32.5457 35.9449V51.8595ZM16.118 25.4167L31.4521 17.1504L46.7739 25.4167L31.4521 34.0911L16.118 25.4167Z" fill="#5A189A"/>
</svg>
